<svg xmlns="http://www.w3.org/2000/svg" width="81.563" height="81.594" viewBox="0 0 81.563 81.594">
  <defs>
    <style>
      .cls-1 {
        fill: #f99631;
        fill-rule: evenodd;
      }
    </style>
  </defs>
  <path id="icon" class="cls-1" d="M139.416,899.671H78.654v-2.6c0-12.9,1.931-16.937,3.8-20.839,1.618-3.382,3.147-6.577,3.147-17.343a23.437,23.437,0,0,1,46.873,0c0,10.967,1.521,14.048,3.132,17.31,1.874,3.793,3.812,7.716,3.812,20.872v2.6Zm-55.525-5.207H134.18c-0.217-9.833-1.692-12.818-3.246-15.964-1.8-3.654-3.671-7.432-3.671-19.615a18.228,18.228,0,0,0-36.456,0c0,11.947-1.859,15.833-3.657,19.59C85.592,881.731,84.113,884.822,83.891,894.464Zm27.748-53.8h-5.208V828.514h5.208v12.148Zm-2.6,69.422a9.558,9.558,0,0,1-9.548-9.546v-6.074h19.1v6.074A9.557,9.557,0,0,1,109.035,910.084Zm-4.34-10.413v0.867a4.34,4.34,0,0,0,8.68,0v-0.867H104.7Zm39.126-24.956-3.748-3.615,1.809-1.874a9.977,9.977,0,0,0,0-13.74l-1.809-1.873L143.821,850l1.809,1.873a15.226,15.226,0,0,1,0,20.971Zm-69.572,0-1.808-1.873a15.227,15.227,0,0,1,0-20.971L74.249,850,78,853.613l-1.808,1.873a9.977,9.977,0,0,0,0,13.741L78,871.1Z" transform="translate(-68.281 -828.5)"/>
</svg>
