<svg id="fixed_nav" xmlns="http://www.w3.org/2000/svg" xmlns:xlink="http://www.w3.org/1999/xlink" width="65" height="54" viewBox="0 0 65 54">
  <defs>
    <style>
      .cls-1 {
        filter: url(#filter);
      }

      .cls-2 {
        fill: #f4810b;
        fill-rule: evenodd;
      }
    </style>
    <filter id="filter" filterUnits="userSpaceOnUse">
      <feFlood result="flood" flood-color="#828282"/>
      <feComposite result="composite" operator="in" in2="SourceGraphic"/>
      <feBlend result="blend" in2="SourceGraphic"/>
    </filter>
  </defs>
  <g id="off" class="cls-1">
    <path id="シェイプ_29" data-name="シェイプ 29" class="cls-2" d="M3.52,42.858V3.722H42.66v19.84L45.519,20.7V2.292A1.429,1.429,0,0,0,44.089.863h-42A1.429,1.429,0,0,0,.661,2.292V44.287a1.43,1.43,0,0,0,1.429,1.429H24.284L25.1,42.858H3.52ZM64.443,20.541l-6.854-6.854a1.429,1.429,0,0,0-1.011-.419h0a1.429,1.429,0,0,0-1.011.419L45.519,23.735,42.66,26.594,27.97,41.283h0a1.428,1.428,0,0,0-.364.617l-0.274.957-0.818,2.859L24.861,51.5a1.429,1.429,0,0,0,1.767,1.767l9.6-2.745h0a1.407,1.407,0,0,0,.175-0.063l0,0a1.411,1.411,0,0,0,.236-0.131l0.011-.008,0.059-.044,0.013-.01a1.438,1.438,0,0,0,.12-0.107l4.441-4.441,4.232-4.232L59.287,27.717l0,0,5.152-5.151A1.429,1.429,0,0,0,64.443,20.541ZM28.317,49.81l1.171-4.093,0.2-.7,0.7,0.7,2.724,2.724Zm17.2-12.368L42.66,40.3,40.1,42.858l-2.859,2.859-1.409,1.409-1.409-1.409-2.859-2.859L31,42.293,42.66,30.637l2.859-2.859,5.9-5.9,4.832,4.832ZM58.277,24.685l-4.832-4.832,3.134-3.134,4.832,4.832ZM36.02,12.141H10.16a1.429,1.429,0,1,0,0,2.859H36.02A1.429,1.429,0,1,0,36.02,12.141ZM37.449,23.29A1.429,1.429,0,0,0,36.02,21.86H10.16a1.429,1.429,0,1,0,0,2.859H36.02A1.429,1.429,0,0,0,37.449,23.29ZM10.16,31.58a1.429,1.429,0,1,0,0,2.859h17.5a1.429,1.429,0,1,0,0-2.859H10.16Z"/>
  </g>
</svg>
