<svg id="fixed_nav" xmlns="http://www.w3.org/2000/svg" xmlns:xlink="http://www.w3.org/1999/xlink" width="55" height="61" viewBox="0 0 55 61">
  <defs>
    <style>
      .cls-1 {
        filter: url(#filter);
      }

      .cls-2 {
        fill: #2d2d2d;
        stroke: #2d2d2d;
        stroke-width: 1px;
        fill-rule: evenodd;
      }
    </style>
    <filter id="filter" filterUnits="userSpaceOnUse">
      <feFlood result="flood" flood-color="#828282"/>
      <feComposite result="composite" operator="in" in2="SourceGraphic"/>
      <feBlend result="blend" in2="SourceGraphic"/>
    </filter>
  </defs>
  <g id="off" class="cls-1">
    <path id="シェイプ_1" data-name="シェイプ 1" class="cls-2" d="M13.328,60.442H6.749A1.813,1.813,0,0,1,4.938,58.63V45.97a1.813,1.813,0,0,1,1.811-1.812h6.579a1.813,1.813,0,0,1,1.811,1.812V58.63A1.813,1.813,0,0,1,13.328,60.442ZM6.868,58.51h6.341V46.09H6.868V58.51Zm19.259,1.931H19.548a1.813,1.813,0,0,1-1.811-1.812v-17.7a1.813,1.813,0,0,1,1.811-1.812h6.579a1.813,1.813,0,0,1,1.811,1.812v17.7A1.813,1.813,0,0,1,26.127,60.442ZM19.668,58.51h6.34V41.051h-6.34V58.51Zm19.259,1.931H32.347a1.813,1.813,0,0,1-1.811-1.812V34.212A1.813,1.813,0,0,1,32.347,32.4h6.579a1.813,1.813,0,0,1,1.811,1.812V58.63A1.813,1.813,0,0,1,38.927,60.442Zm-6.46-1.931h6.341V34.331H32.467V58.51Zm19.259,1.931H45.147a1.813,1.813,0,0,1-1.811-1.812V25.813A1.813,1.813,0,0,1,45.147,24h6.579a1.813,1.813,0,0,1,1.811,1.812V58.63A1.813,1.813,0,0,1,51.726,60.442Zm-6.46-1.931h6.341V25.932H45.266V58.51Zm1.685-40.3L48.564,1.556,35.627,9.406l2.848,2.214C33.933,17.544,22.318,30.06,1.014,37.2c-0.886.3,26.389-1.639,42.41-21.738Z"/>
  </g>
</svg>
