<svg xmlns="http://www.w3.org/2000/svg" width="166.5" height="115.79" viewBox="0 0 166.5 115.79">
  <defs>
    <style>
      .cls-1 {
        fill: #414664;
        fill-rule: evenodd;
      }
    </style>
  </defs>
  <path id="シェイプ_20" data-name="シェイプ 20" class="cls-1" d="M343.988,1375.76a1.826,1.826,0,0,1-1.824-1.82v-26.13h-2.5v26.13a1.824,1.824,0,0,1-3.647,0v-27.95a1.816,1.816,0,0,1,1.823-1.81h6.143a1.817,1.817,0,0,1,1.824,1.81v27.95A1.826,1.826,0,0,1,343.988,1375.76Zm17.847-13.26a1.816,1.816,0,0,1-1.823-1.81v-7.01a1.818,1.818,0,0,1,1.823-1.82h6.143a1.819,1.819,0,0,1,1.824,1.82v5.83a1.824,1.824,0,0,1-3.648,0v-4.02h-2.5v5.2A1.816,1.816,0,0,1,361.835,1362.5Zm-29.842,13.26a1.826,1.826,0,0,1-1.824-1.82v-18.45h-2.5v18.45a1.824,1.824,0,0,1-3.647,0v-20.26a1.818,1.818,0,0,1,1.823-1.82h6.143a1.819,1.819,0,0,1,1.824,1.82v20.26A1.826,1.826,0,0,1,331.993,1375.76Zm17.847-6.58a1.816,1.816,0,0,1-1.823-1.81V1334.9a1.818,1.818,0,0,1,1.823-1.82h6.143a1.819,1.819,0,0,1,1.824,1.82v27.36a1.824,1.824,0,0,1-3.648,0v-25.55h-2.5v30.66A1.816,1.816,0,0,1,349.84,1369.18Zm-8.616,41.42H263.731a11.707,11.707,0,0,1-11.723-11.67v-66.66a11.715,11.715,0,0,1,11.723-11.68h112.95a11.714,11.714,0,0,1,11.722,11.68v27.83a2.155,2.155,0,0,1-4.31,0v-27.83a7.4,7.4,0,0,0-7.412-7.38H263.731a7.4,7.4,0,0,0-7.412,7.38v66.66a7.4,7.4,0,0,0,7.412,7.38h77.493A2.145,2.145,0,1,1,341.224,1410.6Zm-67.914-39.13a1.982,1.982,0,0,1-1.458-.63,24.283,24.283,0,0,1,17.111-40.81,1.969,1.969,0,0,1,1.446.55,2,2,0,0,1,.6,1.43v24.14a1.989,1.989,0,0,1-.7,1.51L274.6,1371A1.966,1.966,0,0,1,273.31,1371.47Zm13.724-37.32a20.3,20.3,0,0,0-13.5,32.55l13.5-11.46v-21.09Zm2.685,44.45a24.53,24.53,0,0,1-17.867-7.76,1.973,1.973,0,0,1-.53-1.46,1.994,1.994,0,0,1,.7-1.4l15.016-12.74v-23.23a1.983,1.983,0,0,1,1.929-1.98l0.169-.01c0.195-.01.391-0.01,0.587-0.01A24.3,24.3,0,1,1,289.719,1378.6Zm-13.457-9.01a20.37,20.37,0,1,0,14.751-35.58v22.14a1.989,1.989,0,0,1-.7,1.51Zm12.762-13.44h0Zm21.621,7.28a1.953,1.953,0,0,1-.476-0.06l-21.62-5.3a1.978,1.978,0,1,1,.95-3.84l21.62,5.29A1.983,1.983,0,0,1,310.645,1363.43Zm24.615,39.41a1.759,1.759,0,0,1-1.229-.5l-17.552-17.3a1.734,1.734,0,0,1-.013-2.46,1.752,1.752,0,0,1,2.471-.01l16.463,16.22,5.346-4.12a1.742,1.742,0,1,1,2.14,2.75l-6.556,5.06A1.771,1.771,0,0,1,335.26,1402.84Zm-41.527-1.37a1.749,1.749,0,0,1-1.158-.43l-7.137-6.3a1.745,1.745,0,0,1,2.316-2.61l5.907,5.22,15.091-15.02a1.743,1.743,0,1,1,2.469,2.46l-16.253,16.17A1.74,1.74,0,0,1,293.733,1401.47Zm-22.662.75a1.753,1.753,0,0,1-1.226-.5l-4.477-4.39a1.744,1.744,0,0,1,2.453-2.48l3.23,3.17,6.317-6.41a1.761,1.761,0,0,1,2.471-.02,1.735,1.735,0,0,1,.023,2.46l-7.544,7.65a1.732,1.732,0,0,1-1.232.52h-0.015Zm42.815-15.62a5.44,5.44,0,1,1,5.5-5.44A5.476,5.476,0,0,1,313.886,1386.6Zm0-7.24a1.8,1.8,0,1,0,1.835,1.8A1.821,1.821,0,0,0,313.886,1379.36Zm-31.133,17.27a5.44,5.44,0,1,1,5.5-5.44A5.476,5.476,0,0,1,282.753,1396.63Zm0-7.23a1.791,1.791,0,1,0,1.836,1.79A1.813,1.813,0,0,0,282.753,1389.4Zm89.121,28.69a27,27,0,1,1,27.113-27A27.086,27.086,0,0,1,371.874,1418.09Zm0-50.04a23.04,23.04,0,1,0,23.134,23.04A23.116,23.116,0,0,0,371.874,1368.05Zm12.744,37.71a1.98,1.98,0,0,1-1.407-3.38,15.935,15.935,0,0,0-5.1-26,1.983,1.983,0,1,1,1.55-3.65,19.888,19.888,0,0,1,6.361,32.45A1.976,1.976,0,0,1,384.618,1405.76Zm13.389,8.39a1.967,1.967,0,0,1-1.371-.55l-4.856-4.6a1.975,1.975,0,0,1-.07-2.8,2,2,0,0,1,2.813-.07l4.855,4.6A1.984,1.984,0,0,1,398.007,1414.15Zm-3.893,3.87a2,2,0,0,1-1.371-.54l-4.855-4.6a1.985,1.985,0,1,1,2.742-2.87l4.856,4.6A1.975,1.975,0,0,1,394.114,1418.02Zm16.667,18.36a4.444,4.444,0,0,1-3.136-1.3l-14.256-14.19a4.414,4.414,0,0,1,0-6.25l3.259-3.24a4.44,4.44,0,0,1,6.273,0l14.255,14.19a4.412,4.412,0,0,1,0,6.25l-3.259,3.24A4.442,4.442,0,0,1,410.781,1436.38Zm-11-22.31a0.442,0.442,0,0,0-.322.13l-3.259,3.24a0.468,0.468,0,0,0,0,.65l14.256,14.19a0.453,0.453,0,0,0,.645,0l3.259-3.24a0.47,0.47,0,0,0,0-.65l-14.256-14.19A0.443,0.443,0,0,0,399.784,1414.07Z" transform="translate(-252 -1320.59)"/>
</svg>
