<svg id="fixed_nav" xmlns="http://www.w3.org/2000/svg" width="49" height="49" viewBox="0 0 49 49">
  <defs>
    <style>
      .cls-1 {
        fill: #f4810b;
        fill-rule: evenodd;
      }
    </style>
  </defs>
  <g id="on">
    <path id="シェイプ_19" data-name="シェイプ 19" class="cls-1" d="M45.6,47.482H29.5a1.893,1.893,0,0,1-1.9-1.892V37.872H21.871V45.59a1.894,1.894,0,0,1-1.9,1.892H3.868a1.894,1.894,0,0,1-1.9-1.892V20.619a1.889,1.889,0,0,1,.712-1.477L23.551,2.495a1.9,1.9,0,0,1,2.37,0L46.789,19.142a1.888,1.888,0,0,1,.711,1.477V45.59A1.893,1.893,0,0,1,45.6,47.482Z"/>
  </g>
</svg>
