<svg id="fixed_nav" xmlns="http://www.w3.org/2000/svg" xmlns:xlink="http://www.w3.org/1999/xlink" width="76" height="76" viewBox="0 0 76 76">
  <defs>
    <style>
      .cls-1 {
        filter: url(#filter);
      }

      .cls-2 {
        fill: #2d2d2d;
        fill-rule: evenodd;
      }
    </style>
    <filter id="filter" filterUnits="userSpaceOnUse">
      <feFlood result="flood" flood-color="#828282"/>
      <feComposite result="composite" operator="in" in2="SourceGraphic"/>
      <feBlend result="blend" in2="SourceGraphic"/>
    </filter>
  </defs>
  <g id="off" class="cls-1">
    <path id="シェイプ_19" data-name="シェイプ 19" class="cls-2" d="M72.318,75.47H45.646A3.135,3.135,0,0,1,42.5,72.337V59.555H33.019V72.337a3.136,3.136,0,0,1-3.142,3.132H3.205A3.136,3.136,0,0,1,.064,72.337V30.984a3.128,3.128,0,0,1,1.18-2.446L35.8,0.971a3.148,3.148,0,0,1,3.924,0L74.282,28.538a3.127,3.127,0,0,1,1.178,2.446V72.337A3.135,3.135,0,0,1,72.318,75.47ZM48.788,69.2H69.177V32.49L37.762,7.429,6.347,32.49V69.2H26.736V56.422a3.137,3.137,0,0,1,3.141-3.132H45.646a3.136,3.136,0,0,1,3.142,3.132V69.2Z"/>
  </g>
</svg>
