<svg xmlns="http://www.w3.org/2000/svg" width="61.09" height="78.41" viewBox="0 0 61.09 78.41">
  <defs>
    <style>
      .cls-1 {
        fill: #f9a200;
        fill-rule: evenodd;
      }
    </style>
  </defs>
  <path id="シェイプ_32" data-name="シェイプ 32" class="cls-1" d="M2101.98,2127.16h-46a7.528,7.528,0,0,1-7.54-7.52V2087.3a7.522,7.522,0,0,1,7.54-7.52h0.56v-8.79a22.3,22.3,0,0,1,44.6,0v8.79h0.84a7.522,7.522,0,0,1,7.54,7.52v32.34A7.528,7.528,0,0,1,2101.98,2127.16Zm-28.31-10.9a0.6,0.6,0,0,0,.12.48,0.585,0.585,0,0,0,.45.21l9.3,0.06h0a0.58,0.58,0,0,0,.58-0.58,0.389,0.389,0,0,0-.02-0.15l-2.49-12.02a6.34,6.34,0,1,0-5.45-.09Zm16.51-45.27a11.335,11.335,0,0,0-22.67,0v8.79h22.67v-8.79Z" transform="translate(-2048.44 -2048.75)"/>
</svg>
