<svg xmlns="http://www.w3.org/2000/svg" width="49" height="49" viewBox="0 0 49 49">
  <defs>
    <style>
      .cls-1 {
        fill: #0095f6;
        fill-rule: evenodd;
      }
    </style>
  </defs>
  <path id="icon" class="cls-1" d="M366.811,1308.61a49.481,49.481,0,0,0,17.575,17.58c13.354,7.84,24.191,5.8,26.535-4.01a2.293,2.293,0,0,0-1.079-2.58,39.369,39.369,0,0,0-13.76-4.9,2.283,2.283,0,0,0-2.483,1.5,26.335,26.335,0,0,0-1.023,3.77,1.5,1.5,0,0,1-2,1.12,26.012,26.012,0,0,1-5.363-2.87,38.431,38.431,0,0,1-10.44-10.44,26.552,26.552,0,0,1-2.869-5.36,1.5,1.5,0,0,1,1.125-2,26.155,26.155,0,0,0,3.77-1.02,2.28,2.28,0,0,0,1.5-2.48,39.228,39.228,0,0,0-4.9-13.76,2.276,2.276,0,0,0-2.575-1.08C361.008,1284.42,358.964,1295.26,366.811,1308.61Z" transform="translate(-362 -1282)"/>
</svg>
