<svg id="fixed_nav" xmlns="http://www.w3.org/2000/svg" xmlns:xlink="http://www.w3.org/1999/xlink" width="44" height="44" viewBox="0 0 44 44">
  <defs>
    <style>
      .cls-1 {
        filter: url(#filter);
      }

      .cls-2 {
        fill: #2d2d2d;
        stroke: #2d2d2d;
        stroke-width: 1px;
        fill-rule: evenodd;
      }
    </style>
    <filter id="filter" filterUnits="userSpaceOnUse">
      <feFlood result="flood" flood-color="#828282"/>
      <feComposite result="composite" operator="in" in2="SourceGraphic"/>
      <feBlend result="blend" in2="SourceGraphic"/>
    </filter>
  </defs>
  <g id="off" class="cls-1">
    <path id="シェイプ_2" data-name="シェイプ 2" class="cls-2" d="M24.142,43.5H19.858A2.363,2.363,0,0,1,17.5,41.137v-2.11a1.029,1.029,0,0,1-.005-0.105,0.607,0.607,0,0,0-.337-0.631,1.033,1.033,0,0,1-.216-0.076,16.74,16.74,0,0,1-2.8-1.174,0.991,0.991,0,0,1-.1-0.061l-0.208-.113a0.628,0.628,0,0,0-.547.186l-1.956,1.889a2.365,2.365,0,0,1-3.338-.058L5.015,35.8a2.364,2.364,0,0,1,.058-3.338l1.956-1.889a0.71,0.71,0,0,0,.2-0.361,16.7,16.7,0,0,1-1.417-3.479,1.023,1.023,0,0,1-.031-0.155A0.694,0.694,0,0,0,5.523,26.5H2.861A2.363,2.363,0,0,1,.5,24.14V19.856A2.363,2.363,0,0,1,2.861,17.5H5.274c0.036,0,.072-0.006.108-0.006a0.662,0.662,0,0,0,.6-0.278,16.715,16.715,0,0,1,1.451-3.326,0.689,0.689,0,0,0-.108-0.2L5.283,11.648a2.364,2.364,0,0,1,0-3.338L8.312,5.281a2.364,2.364,0,0,1,3.338,0L13.739,7.37A0.573,0.573,0,0,0,14,7.464a16.717,16.717,0,0,1,3.2-1.329,0.632,0.632,0,0,0,.3-0.613c0-.01,0-0.021,0-0.032V2.859A2.363,2.363,0,0,1,19.858.5h4.284A2.363,2.363,0,0,1,26.5,2.859V5.61a0.6,0.6,0,0,0,.294.522A16.746,16.746,0,0,1,29.882,7.4a0.625,0.625,0,0,0,.544-0.2l1.923-1.923a2.364,2.364,0,0,1,3.338,0L38.716,8.31a2.364,2.364,0,0,1,0,3.338l-1.923,1.923a0.71,0.71,0,0,0-.2.365,16.708,16.708,0,0,1,1.436,3.319,0.652,0.652,0,0,0,.567.232,1.068,1.068,0,0,1,.129.008h2.411A2.363,2.363,0,0,1,43.5,19.856V24.14A2.363,2.363,0,0,1,41.138,26.5h-2.7a0.682,0.682,0,0,0-.236.073,16.692,16.692,0,0,1-1.4,3.544,0.568,0.568,0,0,0,.114.431l1.8,1.8a2.364,2.364,0,0,1,0,3.338l-3.029,3.029a2.363,2.363,0,0,1-3.338,0l-1.556-1.556a1.08,1.08,0,0,1-.12-0.1,0.742,0.742,0,0,0-.41-0.236,16.707,16.707,0,0,1-3.244,1.408,1,1,0,0,1-.187.063,0.567,0.567,0,0,0-.33.492v2.355A2.363,2.363,0,0,1,24.142,43.5Zm-4.573-4.728a1.013,1.013,0,0,1,.009.134v2.233a0.284,0.284,0,0,0,.28.28h4.284a0.284,0.284,0,0,0,.28-0.28V38.731q0-.044,0-0.087a2.65,2.65,0,0,1,1.649-2.293,1.023,1.023,0,0,1,.14-0.053,14.64,14.64,0,0,0,3.224-1.406,1.038,1.038,0,0,1,.386-0.134,2.672,2.672,0,0,1,2.137.658,1.037,1.037,0,0,1,.163.133l1.694,1.694a0.284,0.284,0,0,0,.4,0l3.029-3.029a0.284,0.284,0,0,0,0-.4L35.4,31.969a1,1,0,0,1-.08-0.09,2.661,2.661,0,0,1-.49-2.435,1.036,1.036,0,0,1,.084-0.2,14.6,14.6,0,0,0,1.357-3.488,1.038,1.038,0,0,1,.228-0.437,2.668,2.668,0,0,1,1.786-.892c0.033,0,.067,0,0.1,0h2.756a0.284,0.284,0,0,0,.28-0.28V19.856a0.284,0.284,0,0,0-.28-0.28H38.575a1.05,1.05,0,0,1-.167-0.014,2.662,2.662,0,0,1-2.24-1.368,1.049,1.049,0,0,1-.087-0.206,14.626,14.626,0,0,0-1.412-3.23,1.04,1.04,0,0,1-.135-0.392,2.7,2.7,0,0,1,.754-2.228l0.023-.024,1.936-1.936a0.284,0.284,0,0,0,0-.4L34.216,6.752a0.284,0.284,0,0,0-.4,0L31.884,8.688l-0.024.023a2.671,2.671,0,0,1-2.668.658A1.055,1.055,0,0,1,29,9.289,14.629,14.629,0,0,0,26.13,8.1,1.069,1.069,0,0,1,26,8.058,2.664,2.664,0,0,1,24.423,5.7c0-.018,0-0.036,0-0.054V2.859a0.284,0.284,0,0,0-.28-0.28H19.858a0.284,0.284,0,0,0-.28.28V5.523c0,0.013,0,.026,0,0.038a2.668,2.668,0,0,1-1.6,2.5,1.012,1.012,0,0,1-.122.044,14.64,14.64,0,0,0-3.05,1.285,1.037,1.037,0,0,1-.346.12A2.62,2.62,0,0,1,12.447,9a1.047,1.047,0,0,1-.115-0.1L10.179,6.752a0.284,0.284,0,0,0-.4,0L6.754,9.781a0.284,0.284,0,0,0,0,.4L8.836,12.26Q8.872,12.3,8.9,12.334a2.667,2.667,0,0,1,.633,1.839,1.039,1.039,0,0,1-.147.487A14.629,14.629,0,0,0,7.94,17.916a1.058,1.058,0,0,1-.058.149,2.675,2.675,0,0,1-2.343,1.5,1.006,1.006,0,0,1-.14.01H2.861a0.284,0.284,0,0,0-.28.28V24.14a0.284,0.284,0,0,0,.28.28H5.574q0.044,0,.088,0a2.656,2.656,0,0,1,1.866.946,1.04,1.04,0,0,1,.211.414Q7.792,26,7.851,26.206a1.047,1.047,0,0,1,.036.2,14.627,14.627,0,0,0,1.287,3.016,1.04,1.04,0,0,1,.128.395,2.7,2.7,0,0,1-.793,2.215l-0.023.023-1.969,1.9a0.284,0.284,0,0,0-.007.4l2.976,3.081a0.278,0.278,0,0,0,.2.084,0.281,0.281,0,0,0,.2-0.077l1.969-1.9,0.024-.023a2.671,2.671,0,0,1,2.679-.612,1.028,1.028,0,0,1,.188.083q0.186,0.105.376,0.205a0.986,0.986,0,0,1,.1.058A14.677,14.677,0,0,0,17.784,36.3a1.04,1.04,0,0,1,.211.089A2.688,2.688,0,0,1,19.569,38.769ZM22,30.973A8.975,8.975,0,1,1,30.974,22,8.985,8.985,0,0,1,22,30.973ZM22,15.1A6.894,6.894,0,1,0,28.894,22,6.9,6.9,0,0,0,22,15.1Z"/>
  </g>
</svg>
