<svg xmlns="http://www.w3.org/2000/svg" width="18.783" height="16.889" viewBox="0 0 18.783 16.889"><defs><style>.a{fill:#7b7b7b;}</style></defs><path class="a" d="M18.375,33.158a18.246,18.246,0,0,0-3.756-3.34l3.056-3.056a.55.55,0,1,0-.778-.778l-3.255,3.255a9,9,0,0,0-4.25-1.159c-3.46,0-6.73,2.464-8.983,5.078a1.709,1.709,0,0,0,0,2.218,18.246,18.246,0,0,0,3.756,3.34L1.109,41.772a.55.55,0,0,0,.778.778L5.143,39.3a9,9,0,0,0,4.25,1.159c3.46,0,6.73-2.464,8.983-5.078a1.709,1.709,0,0,0,0-2.218Zm-17.132,1.5a.594.594,0,0,1,0-.78c1.217-1.412,4.447-4.7,8.149-4.7a7.766,7.766,0,0,1,3.432.876l-1.51,1.51a3.314,3.314,0,0,0-4.622,4.622L4.963,37.918a17.221,17.221,0,0,1-3.72-3.26Zm10.364-.39a2.213,2.213,0,0,1-3.341,1.905l1.516-1.516L11.3,33.14a2.2,2.2,0,0,1,.309,1.127Zm-4.429,0a2.213,2.213,0,0,1,3.341-1.905L9,33.878,7.487,35.394a2.2,2.2,0,0,1-.309-1.127Zm10.364.39c-1.217,1.412-4.447,4.7-8.149,4.7a7.766,7.766,0,0,1-3.432-.876l1.51-1.51a3.314,3.314,0,0,0,4.622-4.622l1.729-1.729a17.223,17.223,0,0,1,3.72,3.26A.594.594,0,0,1,17.541,34.657Z" transform="translate(0 -25.823)"/></svg>