<svg xmlns="http://www.w3.org/2000/svg" width="76.125" height="76.12" viewBox="0 0 76.125 76.12">
  <defs>
    <style>
      .cls-1 {
        fill: #f99631;
        fill-rule: evenodd;
      }
    </style>
  </defs>
  <path id="icon" class="cls-1" d="M84.081,1068.13a15.38,15.38,0,1,1,15.382-15.38A15.4,15.4,0,0,1,84.081,1068.13Zm0-25.91a10.525,10.525,0,1,0,10.525,10.53A10.543,10.543,0,0,0,84.081,1042.22Zm45.337,3.24a15.38,15.38,0,1,1,15.382-15.38A15.4,15.4,0,0,1,129.418,1045.46Zm0-25.9a10.525,10.525,0,1,0,10.524,10.52A10.535,10.535,0,0,0,129.418,1019.56Zm0,71.24a15.38,15.38,0,1,1,15.382-15.38A15.4,15.4,0,0,1,129.418,1090.8Zm0-25.91a10.525,10.525,0,1,0,10.524,10.53A10.537,10.537,0,0,0,129.418,1064.89Zm-10.49,8L92.4,1059.62l2.172-4.34,26.526,13.26Zm-24.346-22.68-2.172-4.34,26.518-13.26,2.172,4.34Z" transform="translate(-68.688 -1014.69)"/>
</svg>
